<svg id="visual" viewBox="0 0 900 600" width="900" height="600" xmlns="http://www.w3.org/2000/svg" xmlns:xlink="http://www.w3.org/1999/xlink" version="1.1"><rect x="0" y="0" width="900" height="600" fill="#062b3d"></rect><path d="M0 493L18.8 499.2C37.7 505.3 75.3 517.7 112.8 523.3C150.3 529 187.7 528 225.2 523.2C262.7 518.3 300.3 509.7 337.8 508.7C375.3 507.7 412.7 514.3 450.2 513.2C487.7 512 525.3 503 562.8 502.3C600.3 501.7 637.7 509.3 675.2 510.2C712.7 511 750.3 505 787.8 501.7C825.3 498.3 862.7 497.7 881.3 497.3L900 497L900 601L881.3 601C862.7 601 825.3 601 787.8 601C750.3 601 712.7 601 675.2 601C637.7 601 600.3 601 562.8 601C525.3 601 487.7 601 450.2 601C412.7 601 375.3 601 337.8 601C300.3 601 262.7 601 225.2 601C187.7 601 150.3 601 112.8 601C75.3 601 37.7 601 18.8 601L0 601Z" fill="#9526ad"></path><path d="M0 531L18.8 534.5C37.7 538 75.3 545 112.8 548.5C150.3 552 187.7 552 225.2 549.2C262.7 546.3 300.3 540.7 337.8 540.3C375.3 540 412.7 545 450.2 544.7C487.7 544.3 525.3 538.7 562.8 537.5C600.3 536.3 637.7 539.7 675.2 538.2C712.7 536.7 750.3 530.3 787.8 524.7C825.3 519 862.7 514 881.3 511.5L900 509L900 601L881.3 601C862.7 601 825.3 601 787.8 601C750.3 601 712.7 601 675.2 601C637.7 601 600.3 601 562.8 601C525.3 601 487.7 601 450.2 601C412.7 601 375.3 601 337.8 601C300.3 601 262.7 601 225.2 601C187.7 601 150.3 601 112.8 601C75.3 601 37.7 601 18.8 601L0 601Z" fill="#7d21aa"></path><path d="M0 564L18.8 559.2C37.7 554.3 75.3 544.7 112.8 540.3C150.3 536 187.7 537 225.2 540.8C262.7 544.7 300.3 551.3 337.8 551.7C375.3 552 412.7 546 450.2 543.5C487.7 541 525.3 542 562.8 544.2C600.3 546.3 637.7 549.7 675.2 552.7C712.7 555.7 750.3 558.3 787.8 553.7C825.3 549 862.7 537 881.3 531L900 525L900 601L881.3 601C862.7 601 825.3 601 787.8 601C750.3 601 712.7 601 675.2 601C637.7 601 600.3 601 562.8 601C525.3 601 487.7 601 450.2 601C412.7 601 375.3 601 337.8 601C300.3 601 262.7 601 225.2 601C187.7 601 150.3 601 112.8 601C75.3 601 37.7 601 18.8 601L0 601Z" fill="#631ea7"></path><path d="M0 557L18.8 557.5C37.7 558 75.3 559 112.8 562.2C150.3 565.3 187.7 570.7 225.2 572.5C262.7 574.3 300.3 572.7 337.8 568.2C375.3 563.7 412.7 556.3 450.2 557.8C487.7 559.3 525.3 569.7 562.8 573C600.3 576.3 637.7 572.7 675.2 571.3C712.7 570 750.3 571 787.8 567.5C825.3 564 862.7 556 881.3 552L900 548L900 601L881.3 601C862.7 601 825.3 601 787.8 601C750.3 601 712.7 601 675.2 601C637.7 601 600.3 601 562.8 601C525.3 601 487.7 601 450.2 601C412.7 601 375.3 601 337.8 601C300.3 601 262.7 601 225.2 601C187.7 601 150.3 601 112.8 601C75.3 601 37.7 601 18.8 601L0 601Z" fill="#441da3"></path><path d="M0 574L18.8 573.5C37.7 573 75.3 572 112.8 572.5C150.3 573 187.7 575 225.2 578.3C262.7 581.7 300.3 586.3 337.8 587.8C375.3 589.3 412.7 587.7 450.2 585.3C487.7 583 525.3 580 562.8 580.2C600.3 580.3 637.7 583.7 675.2 584.5C712.7 585.3 750.3 583.7 787.8 584.3C825.3 585 862.7 588 881.3 589.5L900 591L900 601L881.3 601C862.7 601 825.3 601 787.8 601C750.3 601 712.7 601 675.2 601C637.7 601 600.3 601 562.8 601C525.3 601 487.7 601 450.2 601C412.7 601 375.3 601 337.8 601C300.3 601 262.7 601 225.2 601C187.7 601 150.3 601 112.8 601C75.3 601 37.7 601 18.8 601L0 601Z" fill="#0a1c9f"></path></svg>