<svg id="visual" viewBox="0 0 900 600" width="900" height="600" xmlns="http://www.w3.org/2000/svg" xmlns:xlink="http://www.w3.org/1999/xlink" version="1.1"><rect x="0" y="0" width="900" height="600" fill="#001122"></rect><path d="M0 372L129 372L257 355L386 393L514 383L643 351L771 411L900 425L900 601L771 601L643 601L514 601L386 601L257 601L129 601L0 601Z" fill="#f5730a"></path><path d="M0 429L129 418L257 410L386 424L514 479L643 398L771 417L900 396L900 601L771 601L643 601L514 601L386 601L257 601L129 601L0 601Z" fill="#ec3c4f"></path><path d="M0 437L129 473L257 457L386 484L514 509L643 455L771 495L900 509L900 601L771 601L643 601L514 601L386 601L257 601L129 601L0 601Z" fill="#bf2778"></path><path d="M0 529L129 503L257 507L386 484L514 488L643 528L771 532L900 522L900 601L771 601L643 601L514 601L386 601L257 601L129 601L0 601Z" fill="#77358a"></path><path d="M0 542L129 528L257 526L386 566L514 568L643 570L771 540L900 550L900 601L771 601L643 601L514 601L386 601L257 601L129 601L0 601Z" fill="#09387e"></path></svg>