<svg id="visual" viewBox="0 0 900 600" width="900" height="600" xmlns="http://www.w3.org/2000/svg" xmlns:xlink="http://www.w3.org/1999/xlink" version="1.1"><rect x="0" y="0" width="900" height="600" fill="#031128"></rect><path d="M153 0L223 86L152 171L181 257L224 343L182 429L215 514L206 600L0 600L0 514L0 429L0 343L0 257L0 171L0 86L0 0Z" fill="#f7770f"></path><path d="M191 0L190 86L172 171L164 257L189 343L207 429L169 514L151 600L0 600L0 514L0 429L0 343L0 257L0 171L0 86L0 0Z" fill="#f76b21"></path><path d="M172 0L141 86L161 171L155 257L161 343L186 429L151 514L170 600L0 600L0 514L0 429L0 343L0 257L0 171L0 86L0 0Z" fill="#f65f2e"></path><path d="M129 0L128 86L166 171L126 257L139 343L157 429L160 514L138 600L0 600L0 514L0 429L0 343L0 257L0 171L0 86L0 0Z" fill="#f35339"></path><path d="M107 0L123 86L133 171L134 257L112 343L145 429L118 514L112 600L0 600L0 514L0 429L0 343L0 257L0 171L0 86L0 0Z" fill="#ef4843"></path><path d="M77 0L114 86L95 171L120 257L88 343L111 429L110 514L111 600L0 600L0 514L0 429L0 343L0 257L0 171L0 86L0 0Z" fill="#e93e4b"></path><path d="M61 0L74 86L98 171L73 257L71 343L60 429L72 514L60 600L0 600L0 514L0 429L0 343L0 257L0 171L0 86L0 0Z" fill="#e23553"></path><path d="M67 0L45 86L79 171L73 257L47 343L72 429L51 514L59 600L0 600L0 514L0 429L0 343L0 257L0 171L0 86L0 0Z" fill="#da2d5b"></path><path d="M50 0L34 86L45 171L42 257L42 343L56 429L34 514L51 600L0 600L0 514L0 429L0 343L0 257L0 171L0 86L0 0Z" fill="#d02762"></path><path d="M33 0L30 86L20 171L14 257L19 343L34 429L36 514L31 600L0 600L0 514L0 429L0 343L0 257L0 171L0 86L0 0Z" fill="#c62368"></path></svg>