<svg id="visual" viewBox="0 0 900 600" width="900" height="600" xmlns="http://www.w3.org/2000/svg" xmlns:xlink="http://www.w3.org/1999/xlink" version="1.1"><rect x="0" y="0" width="900" height="600" fill="#001122"></rect><path d="M0 475L9.3 476.5C18.7 478 37.3 481 56.2 482.7C75 484.3 94 484.7 112.8 483C131.7 481.3 150.3 477.7 169 475.5C187.7 473.3 206.3 472.7 225 470.2C243.7 467.7 262.3 463.3 281.2 461.8C300 460.3 319 461.7 337.8 463.5C356.7 465.3 375.3 467.7 394 468.8C412.7 470 431.3 470 450 469.7C468.7 469.3 487.3 468.7 506.2 469.2C525 469.7 544 471.3 562.8 472.3C581.7 473.3 600.3 473.7 619 475.2C637.7 476.7 656.3 479.3 675 479.5C693.7 479.7 712.3 477.3 731.2 473.3C750 469.3 769 463.7 787.8 461.5C806.7 459.3 825.3 460.7 844 460.5C862.7 460.3 881.3 458.7 890.7 457.8L900 457L900 601L890.7 601C881.3 601 862.7 601 844 601C825.3 601 806.7 601 787.8 601C769 601 750 601 731.2 601C712.3 601 693.7 601 675 601C656.3 601 637.7 601 619 601C600.3 601 581.7 601 562.8 601C544 601 525 601 506.2 601C487.3 601 468.7 601 450 601C431.3 601 412.7 601 394 601C375.3 601 356.7 601 337.8 601C319 601 300 601 281.2 601C262.3 601 243.7 601 225 601C206.3 601 187.7 601 169 601C150.3 601 131.7 601 112.8 601C94 601 75 601 56.2 601C37.3 601 18.7 601 9.3 601L0 601Z" fill="#077b62"></path><path d="M0 491L9.3 490.5C18.7 490 37.3 489 56.2 488.5C75 488 94 488 112.8 488.7C131.7 489.3 150.3 490.7 169 492.2C187.7 493.7 206.3 495.3 225 495.8C243.7 496.3 262.3 495.7 281.2 496.7C300 497.7 319 500.3 337.8 498.2C356.7 496 375.3 489 394 487.3C412.7 485.7 431.3 489.3 450 490.7C468.7 492 487.3 491 506.2 490.8C525 490.7 544 491.3 562.8 490.8C581.7 490.3 600.3 488.7 619 487.5C637.7 486.3 656.3 485.7 675 486.7C693.7 487.7 712.3 490.3 731.2 493.3C750 496.3 769 499.7 787.8 499.2C806.7 498.7 825.3 494.3 844 490.2C862.7 486 881.3 482 890.7 480L900 478L900 601L890.7 601C881.3 601 862.7 601 844 601C825.3 601 806.7 601 787.8 601C769 601 750 601 731.2 601C712.3 601 693.7 601 675 601C656.3 601 637.7 601 619 601C600.3 601 581.7 601 562.8 601C544 601 525 601 506.2 601C487.3 601 468.7 601 450 601C431.3 601 412.7 601 394 601C375.3 601 356.7 601 337.8 601C319 601 300 601 281.2 601C262.3 601 243.7 601 225 601C206.3 601 187.7 601 169 601C150.3 601 131.7 601 112.8 601C94 601 75 601 56.2 601C37.3 601 18.7 601 9.3 601L0 601Z" fill="#169371"></path><path d="M0 520L9.3 517.5C18.7 515 37.3 510 56.2 506.8C75 503.7 94 502.3 112.8 505.2C131.7 508 150.3 515 169 515.2C187.7 515.3 206.3 508.7 225 508.2C243.7 507.7 262.3 513.3 281.2 514.5C300 515.7 319 512.3 337.8 511.5C356.7 510.7 375.3 512.3 394 511.7C412.7 511 431.3 508 450 506.7C468.7 505.3 487.3 505.7 506.2 508.7C525 511.7 544 517.3 562.8 518.2C581.7 519 600.3 515 619 511.7C637.7 508.3 656.3 505.7 675 505.8C693.7 506 712.3 509 731.2 510.5C750 512 769 512 787.8 513.3C806.7 514.7 825.3 517.3 844 516C862.7 514.7 881.3 509.3 890.7 506.7L900 504L900 601L890.7 601C881.3 601 862.7 601 844 601C825.3 601 806.7 601 787.8 601C769 601 750 601 731.2 601C712.3 601 693.7 601 675 601C656.3 601 637.7 601 619 601C600.3 601 581.7 601 562.8 601C544 601 525 601 506.2 601C487.3 601 468.7 601 450 601C431.3 601 412.7 601 394 601C375.3 601 356.7 601 337.8 601C319 601 300 601 281.2 601C262.3 601 243.7 601 225 601C206.3 601 187.7 601 169 601C150.3 601 131.7 601 112.8 601C94 601 75 601 56.2 601C37.3 601 18.7 601 9.3 601L0 601Z" fill="#27ac7f"></path><path d="M0 539L9.3 536.8C18.7 534.7 37.3 530.3 56.2 531C75 531.7 94 537.3 112.8 538.7C131.7 540 150.3 537 169 534.3C187.7 531.7 206.3 529.3 225 530.7C243.7 532 262.3 537 281.2 539.3C300 541.7 319 541.3 337.8 540.3C356.7 539.3 375.3 537.7 394 536.5C412.7 535.3 431.3 534.7 450 533.2C468.7 531.7 487.3 529.3 506.2 530.3C525 531.3 544 535.7 562.8 536.7C581.7 537.7 600.3 535.3 619 533C637.7 530.7 656.3 528.3 675 527.7C693.7 527 712.3 528 731.2 528.8C750 529.7 769 530.3 787.8 530.2C806.7 530 825.3 529 844 528C862.7 527 881.3 526 890.7 525.5L900 525L900 601L890.7 601C881.3 601 862.7 601 844 601C825.3 601 806.7 601 787.8 601C769 601 750 601 731.2 601C712.3 601 693.7 601 675 601C656.3 601 637.7 601 619 601C600.3 601 581.7 601 562.8 601C544 601 525 601 506.2 601C487.3 601 468.7 601 450 601C431.3 601 412.7 601 394 601C375.3 601 356.7 601 337.8 601C319 601 300 601 281.2 601C262.3 601 243.7 601 225 601C206.3 601 187.7 601 169 601C150.3 601 131.7 601 112.8 601C94 601 75 601 56.2 601C37.3 601 18.7 601 9.3 601L0 601Z" fill="#3bc68b"></path><path d="M0 546L9.3 548.3C18.7 550.7 37.3 555.3 56.2 557.2C75 559 94 558 112.8 556C131.7 554 150.3 551 169 550.3C187.7 549.7 206.3 551.3 225 551.8C243.7 552.3 262.3 551.7 281.2 551.8C300 552 319 553 337.8 553.3C356.7 553.7 375.3 553.3 394 554.5C412.7 555.7 431.3 558.3 450 558.2C468.7 558 487.3 555 506.2 553.2C525 551.3 544 550.7 562.8 551C581.7 551.3 600.3 552.7 619 552.2C637.7 551.7 656.3 549.3 675 548C693.7 546.7 712.3 546.3 731.2 547.8C750 549.3 769 552.7 787.8 552.3C806.7 552 825.3 548 844 548.2C862.7 548.3 881.3 552.7 890.7 554.8L900 557L900 601L890.7 601C881.3 601 862.7 601 844 601C825.3 601 806.7 601 787.8 601C769 601 750 601 731.2 601C712.3 601 693.7 601 675 601C656.3 601 637.7 601 619 601C600.3 601 581.7 601 562.8 601C544 601 525 601 506.2 601C487.3 601 468.7 601 450 601C431.3 601 412.7 601 394 601C375.3 601 356.7 601 337.8 601C319 601 300 601 281.2 601C262.3 601 243.7 601 225 601C206.3 601 187.7 601 169 601C150.3 601 131.7 601 112.8 601C94 601 75 601 56.2 601C37.3 601 18.7 601 9.3 601L0 601Z" fill="#51e097"></path><path d="M0 579L9.3 578.7C18.7 578.3 37.3 577.7 56.2 578C75 578.3 94 579.7 112.8 579.8C131.7 580 150.3 579 169 579C187.7 579 206.3 580 225 580C243.7 580 262.3 579 281.2 578.8C300 578.7 319 579.3 337.8 579C356.7 578.7 375.3 577.3 394 577C412.7 576.7 431.3 577.3 450 577.5C468.7 577.7 487.3 577.3 506.2 576.3C525 575.3 544 573.7 562.8 572.5C581.7 571.3 600.3 570.7 619 571.8C637.7 573 656.3 576 675 576.5C693.7 577 712.3 575 731.2 574.7C750 574.3 769 575.7 787.8 576.7C806.7 577.7 825.3 578.3 844 578C862.7 577.7 881.3 576.3 890.7 575.7L900 575L900 601L890.7 601C881.3 601 862.7 601 844 601C825.3 601 806.7 601 787.8 601C769 601 750 601 731.2 601C712.3 601 693.7 601 675 601C656.3 601 637.7 601 619 601C600.3 601 581.7 601 562.8 601C544 601 525 601 506.2 601C487.3 601 468.7 601 450 601C431.3 601 412.7 601 394 601C375.3 601 356.7 601 337.8 601C319 601 300 601 281.2 601C262.3 601 243.7 601 225 601C206.3 601 187.7 601 169 601C150.3 601 131.7 601 112.8 601C94 601 75 601 56.2 601C37.3 601 18.7 601 9.3 601L0 601Z" fill="#69faa2"></path></svg>